:SAMPLES-PER-SECOND 30
:FULLY-SPECIFIED
:DEGREES
514
root  -60.964 34.2513 -57.9414 10.2072 49.7219 0.387405
RightUpLeg  -20.2825 -11.9636 5.31022
RightLeg  26.3786 -0.960176 -0.407965
RightFoot  -8.89796 -0.0221388 0.263252
RightToes  -11.1572 -0.037835 -0.102209
Spine  -0.835685 -1.79781 0.428397
Spine1  -1.73105 -3.75743 1.50373
HEad  -54.8521 -0.772834 4.63416
LeftShoulder1  -1.94126e-019 -3.10601e-018 -2.51263e-017
LeftArm  -3.01154 18.1153 -79.5825
LeftForeArm  28.2918 -24.7019 -4.04531
LeftHand  -0.439089 -1.24947 7.82979
RightShoulder  -4.96962e-017 0 -2.36833e-017
RightArm  -38.2577 -23.7467 77.0478
RightForeArm  63.3355 7.89403 1.33396
RightHand  -0.324301 -2.10092 -11.2191
LeftUpLeg  -5.38493 6.18407 -1.38935
LeftLeg  14.2933 20.6275 3.7743
LeftFoot  -4.59632 -0.0720648 -1.63397
LeftToes  -17.3916 1.31378e-006 1.14341e-007
515
root  -60.721 34.2736 -57.5565 9.3502 49.317 -2.00291
RightUpLeg  -19.1412 -13.0878 7.06629
RightLeg  23.5966 0.794739 0.28355
RightFoot  -7.89456 -0.0397012 -0.0385906
RightToes  -14.5499 -0.0532051 -0.131624
Spine  -1.21004 -2.04667 1.17031
Spine1  -2.50873 -4.27324 3.01096
HEad  -53.4734 0.142728 4.36598
LeftShoulder1  -1.94126e-019 -3.10601e-018 -2.51263e-017
LeftArm  -4.27463 18.9467 -80.8481
LeftForeArm  30.2326 -23.7346 -3.97214
LeftHand  -0.473641 -1.5016 8.14549
RightShoulder  -4.96962e-017 0 -2.36833e-017
RightArm  -37.385 -25.259 75.7164
RightForeArm  62.686 8.4835 1.41664
RightHand  -0.330444 -1.97765 -11.0378
LeftUpLeg  -6.84674 5.99841 0.184728
LeftLeg  17.1093 21.3147 4.9574
LeftFoot  -6.10712 -0.132765 -2.32681
LeftToes  -16.3667 1.31378e-006 1.14341e-007
516
root  -60.4919 34.2683 -57.1846 8.3364 48.883 -4.52065
RightUpLeg  -17.7254 -13.4042 8.87365
RightLeg  20.4721 1.82722 0.548828
RightFoot  -7.05988 -0.0433211 -0.1717
RightToes  -18.1101 -0.071176 -0.161456
Spine  -1.38937 -2.06358 1.89591
Spine1  -2.89882 -4.30674 4.47697
HEad  -53.018 0.63455 4.60841
LeftShoulder1  -1.94126e-019 -3.10601e-018 -2.51263e-017
LeftArm  -5.64912 19.7598 -82.085
LeftForeArm  30.8765 -24.3768 -4.19567
LeftHand  -0.47501 -1.41214 8.26899
RightShoulder  -4.96962e-017 0 -2.36833e-017
RightArm  -36.4361 -26.6213 74.5221
RightForeArm  60.6986 9.48602 1.50949
RightHand  -0.326312 -1.96373 -10.8531
LeftUpLeg  -9.16721 6.84785 1.91441
LeftLeg  21.7412 20.9843 6.65721
LeftFoot  -8.03886 -0.230717 -3.12093
LeftToes  -14.6534 1.31378e-006 1.14341e-007
517
root  -60.2363 34.2274 -56.8192 7.33034 48.3963 -6.38522
RightUpLeg  -16.0038 -12.4768 10.0415
RightLeg  17.919 1.61611 0.408856
RightFoot  -6.81789 -0.0398849 -0.137679
RightToes  -21.161 -0.0880248 -0.186091
Spine  -1.25904 -1.93068 2.41136
Spine1  -2.66348 -4.05513 5.51072
HEad  -53.5167 0.80801 5.28601
LeftShoulder1  -1.94126e-019 -3.10601e-018 -2.51263e-017
LeftArm  -6.49497 20.3356 -82.9325
LeftForeArm  30.0657 -25.7412 -4.46901
LeftHand  -0.451499 -1.35869 7.92545
RightShoulder  -4.96962e-017 0 -2.36833e-017
RightArm  -35.4403 -27.3407 73.656
RightForeArm  58.4923 10.1615 1.53751
RightHand  -0.332308 -1.90639 -10.8822
LeftUpLeg  -11.581 7.64368 3.27919
LeftLeg  27.5474 20.4982 8.80275
LeftFoot  -8.3232 -0.251219 -3.29
LeftToes  -15.4682 1.31378e-006 1.14341e-007
518
root  -59.9101 34.1842 -56.4803 6.86032 47.8209 -6.97285
RightUpLeg  -14.3223 -12.1196 10.2246
RightLeg  16.3755 1.82307 0.410045
RightFoot  -7.0878 -0.0436183 -0.173788
RightToes  -23.5367 -0.102039 -0.204632
Spine  -0.956243 -1.72126 2.5605
Spine1  -2.06896 -3.67107 5.80522
HEad  -54.1714 0.856629 5.96902
LeftShoulder1  -1.94126e-019 -3.10601e-018 -2.51263e-017
LeftArm  -7.18014 20.5305 -83.356
LeftForeArm  29.3328 -26.275 -4.53222
LeftHand  -0.456644 -1.54205 7.81622
RightShoulder  -4.96962e-017 0 -2.36833e-017
RightArm  -35.6669 -27.0604 73.267
RightForeArm  58.6783 9.66582 1.52002
RightHand  -0.332471 -2.02121 -11.2463
LeftUpLeg  -14.3005 7.69794 3.57464
LeftLeg  34.5846 20.4004 11.7803
LeftFoot  -8.08491 -0.252122 -3.4048
LeftToes  -12.6673 1.31378e-006 1.14341e-007
519
root  -59.5404 34.1554 -56.1451 6.80708 47.0943 -7.13962
RightUpLeg  -12.8792 -11.788 10.0973
RightLeg  15.1807 2.11599 0.430252
RightFoot  -7.36644 -0.0482661 -0.221038
RightToes  -25.7322 -0.115664 -0.221237
Spine  -0.736383 -1.42763 2.54346
Spine1  -1.62644 -3.09902 5.76217
HEad  -54.4545 0.888609 6.49319
LeftShoulder1  -1.94126e-019 -3.10601e-018 -2.51263e-017
LeftArm  -8.7673 20.873 -83.692
LeftForeArm  29.5667 -26.1214 -4.45807
LeftHand  -0.476429 -1.65414 8.02669
RightShoulder  -4.96962e-017 0 -2.36833e-017
RightArm  -37.6161 -26.0593 73.2192
RightForeArm  61.8414 8.13892 1.37224
RightHand  -0.321439 -2.29483 -11.7927
LeftUpLeg  -17.6785 6.98451 3.42959
LeftLeg  41.8173 18.9765 14.3153
LeftFoot  -8.40541 -0.275248 -3.58283
LeftToes  -12.2733 1.31378e-006 1.14341e-007
520
root  -59.0817 34.1603 -55.8015 7.29198 46.166 -6.57039
RightUpLeg  -11.3446 -11.1948 9.36498
RightLeg  13.986 2.2596 0.410947
RightFoot  -7.62126 -0.051266 -0.24148
RightToes  -26.8649 -0.122939 -0.229597
Spine  -0.542109 -1.00041 2.32572
Spine1  -1.21688 -2.23508 5.31858
HEad  -54.3452 0.647585 6.56592
LeftShoulder1  -1.94126e-019 -3.10601e-018 -2.51263e-017
LeftArm  -10.3248 21.304 -83.8841
LeftForeArm  29.5431 -25.1402 -4.26525
LeftHand  -0.531386 -1.7442 8.82633
RightShoulder  -4.96962e-017 0 -2.36833e-017
RightArm  -38.9896 -25.0556 73.4757
RightForeArm  64.0649 6.8613 1.15478
RightHand  -0.283582 -2.90157 -12.814
LeftUpLeg  -21.0915 5.63034 2.74784
LeftLeg  47.7586 16.9521 15.7579
LeftFoot  -7.87553 -0.235206 -3.25434
LeftToes  -12.855 1.31378e-006 1.14341e-007
521
root  -58.5716 34.1764 -55.4613 8.23253 45.3291 -5.54086
RightUpLeg  -9.97156 -10.033 8.28401
RightLeg  12.8827 1.73254 0.281097
RightFoot  -7.81262 -0.0473208 -0.161269
RightToes  -26.8626 -0.122924 -0.22958
Spine  -0.408408 -0.505825 1.92201
Spine1  -0.916811 -1.21119 4.5025
HEad  -54.2333 0.227885 6.54917
LeftShoulder1  -1.94126e-019 -3.10601e-018 -2.51263e-017
LeftArm  -12.112 21.8173 -83.7841
LeftForeArm  29.3504 -23.9835 -4.07864
LeftHand  -0.543612 -1.62199 9.17312
RightShoulder  -4.96962e-017 0 -2.36833e-017
RightArm  -39.9326 -24.2671 74.1977
RightForeArm  65.0893 6.17279 1.03204
RightHand  -0.240141 -3.18764 -12.1191
LeftUpLeg  -24.694 4.37934 1.78299
LeftLeg  52.1328 15.569 16.8397
LeftFoot  -6.36005 -0.15265 -2.58543
LeftToes  -14.7015 1.31378e-006 1.14341e-007
522
root  -58.0094 34.176 -55.083 9.09836 44.8605 -4.48169
RightUpLeg  -8.41061 -9.49842 7.18163
RightLeg  11.6936 1.43376 0.202514
RightFoot  -7.85278 -0.0440542 -0.107915
RightToes  -25.6534 -0.115164 -0.22065
Spine  -0.256376 -0.0526623 1.53164
Spine1  -0.589586 -0.251932 3.7145
HEad  -54.5172 -0.208528 6.29417
LeftShoulder1  -1.94126e-019 -3.10601e-018 -2.51263e-017
LeftArm  -12.9641 22.4209 -83.492
LeftForeArm  28.2229 -22.4989 -3.81609
LeftHand  -0.526465 -1.42386 9.13249
RightShoulder  -4.96962e-017 0 -2.36833e-017
RightArm  -39.1699 -23.7884 75.0041
RightForeArm  64.6256 6.59177 1.10649
RightHand  -0.263155 -2.91149 -11.8896
LeftUpLeg  -28.2235 3.31154 1.00694
LeftLeg  54.8469 14.6955 17.4809
LeftFoot  -5.92458 -0.131593 -2.38097
LeftToes  -15.61 1.31378e-006 1.14341e-007
523
root  -57.3926 34.1454 -54.6823 10.2598 44.8505 -3.32603
RightUpLeg  -7.05729 -9.74833 6.03984
RightLeg  10.5968 1.5976 0.194624
RightFoot  -7.89321 -0.0452564 -0.122616
RightToes  -23.1866 -0.0999257 -0.201936
Spine  -0.190911 0.251704 1.1176
Spine1  -0.444975 0.431642 2.86988
HEad  -55.1494 -0.590236 5.94383
LeftShoulder1  -1.94126e-019 -3.10601e-018 -2.51263e-017
LeftArm  -13.7663 23.1903 -83.0537
LeftForeArm  28.0184 -20.7421 -3.48333
LeftHand  -0.523648 -1.47043 9.02644
RightShoulder  -4.96962e-017 0 -2.36833e-017
RightArm  -36.913 -23.352 75.8844
RightForeArm  63.5034 7.6705 1.29814
RightHand  -0.300452 -2.43995 -11.5217
LeftUpLeg  -32.0655 2.39806 0.294831
LeftLeg  55.917 14.0272 17.3632
LeftFoot  -6.24442 -0.14153 -2.43264
LeftToes  -14.5166 1.31378e-006 1.14341e-007
524
root  -56.7369 34.0786 -54.2421 11.521 45.0947 -2.26582
RightUpLeg  -5.84269 -9.34217 5.04517
RightLeg  9.66627 0.702033 0.0745957
RightFoot  -8.29163 -0.0381803 0.0120568
RightToes  -21.0476 -0.0873752 -0.185191
Spine  -0.16282 0.49331 0.730534
Spine1  -0.38231 1.0084 2.0751
HEad  -56.1539 -0.747844 5.55513
LeftShoulder1  -1.94126e-019 -3.10601e-018 -2.51263e-017
LeftArm  -14.3526 24.0555 -82.526
LeftForeArm  28.6899 -19.0664 -3.15364
LeftHand  -0.493463 -1.3802 8.62211
RightShoulder  -4.96962e-017 0 -2.36833e-017
RightArm  -33.6602 -22.9109 76.7157
RightForeArm  61.6858 9.27532 1.49523
RightHand  -0.32004 -2.10288 -11.0736
LeftUpLeg  -35.944 2.22446 -0.349735
LeftLeg  55.1988 13.552 16.4138
LeftFoot  -5.70422 -0.111372 -2.07364
LeftToes  -15.9325 1.31378e-006 1.14341e-007
525
root  -56.0213 33.9776 -53.7496 12.6821 45.4155 -1.1496
RightUpLeg  -4.44658 -8.69096 4.02824
RightLeg  8.93219 -0.59127 -0.0532031
RightFoot  -8.74127 -0.024924 0.220286
RightToes  -19.1164 -0.0765878 -0.16968
Spine  -0.104318 0.71535 0.303417
Spine1  -0.265308 1.54921 1.19867
HEad  -57.2613 -1.00285 5.33187
LeftShoulder1  -1.94126e-019 -3.10601e-018 -2.51263e-017
LeftArm  -14.6317 24.9518 -81.895
LeftForeArm  28.7954 -17.3485 -2.84065
LeftHand  -0.505178 -1.4365 8.75463
RightShoulder  -4.96962e-017 0 -2.36833e-017
RightArm  -29.7889 -22.3573 77.5273
RightForeArm  59.0459 10.9998 1.53198
RightHand  -0.338423 -1.80209 -10.7765
LeftUpLeg  -39.1956 2.65326 -1.20266
LeftLeg  52.5964 13.3797 14.8542
LeftFoot  -4.94826 -0.0775146 -1.63225
LeftToes  -17.8031 1.31378e-006 1.14341e-007
526
root  -55.2193 33.8329 -53.2011 13.6087 45.915 -0.178024
RightUpLeg  -2.9768 -8.16065 3.12782
RightLeg  8.73213 -2.02286 -0.177429
RightFoot  -9.67637 -0.00561676 0.488114
RightToes  -17.5584 -0.0682701 -0.156907
Spine  -0.0290087 0.903853 -0.0871462
Spine1  -0.11945 2.01736 0.397441
HEad  -58.4557 -1.4254 5.31788
LeftShoulder1  -1.94126e-019 -3.10601e-018 -2.51263e-017
LeftArm  -14.5867 25.7797 -81.2352
LeftForeArm  28.7139 -15.615 -2.55157
LeftHand  -0.491756 -1.40215 8.56676
RightShoulder  -4.96962e-017 0 -2.36833e-017
RightArm  -25.7932 -21.6916 78.1324
RightForeArm  56.1062 12.6324 1.42708
RightHand  -0.336869 -1.6939 -10.4234
LeftUpLeg  -41.6262 3.11433 -2.06958
LeftLeg  48.419 13.3909 12.9162
LeftFoot  -5.37871 -0.0838784 -1.62398
LeftToes  -16.9776 1.31378e-006 1.14341e-007
527
root  -54.322 33.644 -52.6296 14.4849 46.5655 0.692841
RightUpLeg  -1.80208 -7.60898 2.29703
RightLeg  9.46181 -3.58804 -0.361426
RightFoot  -11.0305 0.0281123 0.854288
RightToes  -16.8217 -0.0644588 -0.15079
Spine  -0.00142625 1.07177 -0.435836
Spine1  -0.0708974 2.44142 -0.320007
HEad  -59.714 -1.94986 5.36013
LeftShoulder1  -1.94126e-019 -3.10601e-018 -2.51263e-017
LeftArm  -15.0346 26.4675 -80.7593
LeftForeArm  29.1983 -13.6263 -2.24404
LeftHand  -0.470597 -1.39816 8.20942
RightShoulder  -4.96962e-017 0 -2.36833e-017
RightArm  -22.3404 -20.9466 78.4364
RightForeArm  53.8662 14.0007 1.28815
RightHand  -0.340734 -1.5495 -10.1645
LeftUpLeg  -43.1682 2.59419 -2.60753
LeftLeg  43.0585 13.3289 10.7074
LeftFoot  -5.99206 -0.094567 -1.64513
LeftToes  -16.7095 1.31378e-006 1.14341e-007
528
root  -53.3211 33.4357 -52.0311 15.2779 46.9312 1.46713
RightUpLeg  -1.17129 -6.88063 1.45935
RightLeg  11.61 -5.22201 -0.724514
RightFoot  -12.547 0.0833989 1.331
RightToes  -16.7612 -0.064149 -0.150285
Spine  -0.028059 1.36274 -0.762655
Spine1  -0.127476 3.09857 -0.985292
HEad  -61.0051 -2.70069 5.33995
LeftShoulder1  -1.94126e-019 -3.10601e-018 -2.51263e-017
LeftArm  -16.1328 27.1026 -80.4947
LeftForeArm  30.2743 -12.0676 -2.03758
LeftHand  -0.464499 -1.43259 8.06682
RightShoulder  -4.96962e-017 0 -2.36833e-017
RightArm  -20.0566 -20.2377 78.4588
RightForeArm  52.8266 15.0697 1.18492
RightHand  -0.359476 -1.25537 -10.0015
LeftUpLeg  -43.7545 1.05406 -2.60713
LeftLeg  37.7257 13.1549 8.73559
LeftFoot  -6.38451 -0.0985027 -1.60444
LeftToes  -15.9093 1.31378e-006 1.14341e-007
